<svg viewBox="0 0 120 140" xmlns="http://www.w3.org/2000/svg" role="img" aria-label="TPMG crest">
  <title>TPMG crest</title>
  <!-- left column -->
  <rect x="8" y="30" width="10" height="80" fill="#B7CEE0"/>
  <rect x="4" y="106" width="18" height="6" fill="#2B3A55"/>
  <rect x="6" y="24" width="14" height="6" fill="#2B3A55"/>
  <!-- right column -->
  <rect x="102" y="30" width="10" height="80" fill="#B7CEE0"/>
  <rect x="98" y="106" width="18" height="6" fill="#2B3A55"/>
  <rect x="100" y="24" width="14" height="6" fill="#2B3A55"/>
  <!-- shield -->
  <path d="M60 18 L94 30 V64 C94 90 79 106 60 116 C41 106 26 90 26 64 V30 Z" fill="#2B3A55"/>
  <path d="M60 30 L84 39 V63 C84 82 73 94 60 101 C47 94 36 82 36 63 V39 Z" fill="#FFFFFF"/>
  <!-- lion mark, simplified geometric -->
  <circle cx="60" cy="54" r="9" fill="#2B3A55"/>
  <path d="M60 62 C50 62 45 72 45 82 C45 90 53 95 60 95 C67 95 75 90 75 82 C75 72 70 62 60 62 Z" fill="#2B3A55"/>
  <path d="M48 50 L38 44 M72 50 L82 44 M60 45 L60 36" stroke="#2B3A55" stroke-width="3" stroke-linecap="round"/>
</svg>
